<svg width="10" height="21" viewBox="0 0 10 21" fill="none" xmlns="http://www.w3.org/2000/svg">
<path d="M3.29584 1.08163C4.13284 0.30205 5.31775 0.0370771 6.44071 0.0063926C7.62594 -0.00383556 8.81118 0.00127852 9.99609 0.00127852C10.0013 1.2293 10.0013 2.4522 9.99609 3.68022C9.23212 3.68022 8.46262 3.68022 7.69865 3.68022C7.2151 3.64953 6.71623 4.01135 6.62786 4.48537C6.61743 5.30586 6.62265 6.12603 6.62265 6.94652C7.74528 6.95163 8.86824 6.94652 9.99087 6.95163C9.90772 8.13873 9.75708 9.32104 9.58036 10.4931C8.5875 10.5034 7.59464 10.4931 6.60178 10.4982C6.59135 13.9988 6.607 17.4943 6.59656 20.9952C5.12015 21.0003 3.64929 20.9901 2.17288 21.0003C2.14679 17.4997 2.17288 13.9991 2.15723 10.4982C1.43989 10.4931 0.717337 10.5034 0 10.4931C0.00521699 9.31593 0 8.13905 0 6.96697C0.717337 6.95674 1.43989 6.96697 2.15723 6.96186C2.1781 5.82046 2.13636 4.67395 2.1781 3.53255C2.25635 2.62065 2.60458 1.70842 3.29584 1.08163Z" fill="black"/>
</svg>
