<svg width="10" height="24" viewBox="0 0 10 24" fill="none" xmlns="http://www.w3.org/2000/svg">
<path d="M3.29584 1.23615C4.13284 0.3452 5.31775 0.0423738 6.44071 0.00730583C7.62594 -0.0043835 8.81118 0.00146117 9.99609 0.00146117C10.0013 1.40491 10.0013 2.80251 9.99609 4.20596C9.23212 4.20596 8.46262 4.20596 7.69865 4.20596C7.2151 4.1709 6.71623 4.58441 6.62786 5.12613C6.61743 6.06384 6.62265 7.00117 6.62265 7.93888C7.74528 7.94472 8.86824 7.93888 9.99087 7.94472C9.90772 9.30141 9.75708 10.6526 9.58036 11.9921C8.5875 12.0038 7.59464 11.9921 6.60178 11.998C6.59135 15.9987 6.607 19.9935 6.59656 23.9945C5.12015 24.0004 3.64929 23.9887 2.17288 24.0004C2.14679 19.9997 2.17288 15.999 2.15723 11.998C1.43989 11.9921 0.717337 12.0038 0 11.9921C0.00521699 10.6468 0 9.30178 0 7.96225C0.717337 7.95057 1.43989 7.96225 2.15723 7.95641C2.1781 6.65195 2.13636 5.34165 2.1781 4.0372C2.25635 2.99502 2.60458 1.95248 3.29584 1.23615Z" fill="black"/>
</svg>
