<svg width="21" height="21" viewBox="0 0 21 21" fill="none" xmlns="http://www.w3.org/2000/svg">
<path d="M10.5174 5.05901C7.49508 5.05901 5.03577 7.48244 5.03577 10.4615C5.03577 13.4403 7.49474 15.8637 10.5174 15.8637C13.5396 15.8637 15.9989 13.4403 15.9989 10.4615C15.9989 7.48244 13.5396 5.05901 10.5174 5.05901ZM10.5174 13.8748C8.59559 13.8748 7.03241 12.3433 7.03241 10.4615C7.03241 8.57936 8.59559 7.04825 10.5174 7.04825C12.4388 7.04825 14.0023 8.57936 14.0023 10.4615C14.0023 12.3437 12.4391 13.8748 10.5174 13.8748Z" fill="black"/>
<path d="M14.9554 0H6.04455C2.71177 0 0 2.70091 0 6.02112V14.9789C0 18.2987 2.71143 21 6.04455 21H14.9554C18.2886 21 21 18.2987 21 14.9789V6.02112C21 2.70126 18.2886 0 14.9554 0ZM18.9996 14.9789C18.9996 17.2001 17.1853 19.0073 14.9554 19.0073H6.04455C3.81468 19.0073 2.00043 17.2001 2.00043 14.9789V6.02112C2.00043 3.79989 3.81468 1.99267 6.04455 1.99267H14.9554C17.1853 1.99267 18.9996 3.79989 18.9996 6.02112V14.9789Z" fill="black"/>
<path d="M16.0965 6.12307C16.8088 6.12307 17.3863 5.54786 17.3863 4.83831C17.3863 4.12875 16.8088 3.55354 16.0965 3.55354C15.3842 3.55354 14.8067 4.12875 14.8067 4.83831C14.8067 5.54786 15.3842 6.12307 16.0965 6.12307Z" fill="black"/>
</svg>
