<svg width="22" height="22" viewBox="0 0 22 22" fill="none" xmlns="http://www.w3.org/2000/svg">
<path d="M18.7952 3.19711C16.7271 1.13639 13.9766 0.00109129 11.0462 0C5.00866 0 0.0943029 4.89006 0.0921098 10.9009C0.0913788 12.8223 0.59579 14.6978 1.55417 16.3508L0 22L5.80694 20.4842C7.4068 21.3529 9.20843 21.8105 11.0415 21.8112H11.0459C17.0831 21.8112 21.9974 16.9204 22 10.91C22.0018 7.99659 20.8636 5.25782 18.7952 3.19711ZM11.0466 19.9698H11.0429C9.40909 19.9691 7.80667 19.5322 6.40894 18.7069L6.07633 18.5104L2.63025 19.41L3.54988 16.0663L3.3335 15.7233C2.42227 14.2806 1.94089 12.6135 1.94162 10.9012C1.94344 5.90532 6.02808 1.841 11.0499 1.841C13.4817 1.84173 15.7676 2.78569 17.4866 4.49829C19.2056 6.21088 20.1516 8.48731 20.1509 10.9085C20.149 15.9052 16.0648 19.9698 11.0466 19.9698Z" fill="white"/>
<path d="M16.0407 13.1834C15.7669 13.047 14.4214 12.3882 14.1703 12.2973C13.9196 12.2064 13.7368 12.1609 13.5544 12.4337C13.372 12.7065 12.8475 13.3198 12.6878 13.5017C12.5281 13.6836 12.3683 13.7061 12.0949 13.5697C11.8212 13.4333 10.9392 13.146 9.89381 12.2176C9.08017 11.4952 8.53081 10.6033 8.37108 10.3308C8.21135 10.058 8.3539 9.91065 8.49097 9.77497C8.61414 9.65274 8.76474 9.45667 8.90144 9.29771C9.03814 9.13874 9.08383 9.02489 9.17521 8.84337C9.26659 8.66149 9.2209 8.50252 9.15255 8.36611C9.0842 8.2297 8.53665 6.88887 8.30857 6.34359C8.08634 5.8125 7.86082 5.88452 7.69268 5.87616C7.53332 5.86815 7.35056 5.8667 7.16817 5.8667C6.98578 5.8667 6.68935 5.93472 6.43824 6.20754C6.18749 6.48037 5.48022 7.13914 5.48022 8.47997C5.48022 9.8208 6.4609 11.1162 6.59797 11.2977C6.73467 11.4796 8.52788 14.2307 11.2736 15.4107C11.9268 15.6916 12.4363 15.8589 12.834 15.9844C13.4897 16.1917 14.0863 16.1626 14.5581 16.0924C15.0841 16.0142 16.1774 15.4337 16.4054 14.7974C16.6335 14.1612 16.6335 13.6156 16.5652 13.5021C16.4968 13.3882 16.3144 13.3198 16.0407 13.1834Z" fill="white"/>
</svg>
